<svg width="40" height="40" viewBox="0 0 40 40" fill="none" xmlns="http://www.w3.org/2000/svg">
<g clip-path="url(#clip0_1_79)">
<path fill-rule="evenodd" clip-rule="evenodd" d="M36.6667 20.1017C36.6667 10.8417 29.205 3.33337 20 3.33337C10.795 3.33337 3.33337 10.8417 3.33337 20.1017C3.33337 28.4717 9.42837 35.4084 17.3967 36.6667V24.95H13.1634V20.1H17.3967V16.4084C17.3967 12.205 19.8834 9.88337 23.6917 9.88337C25.515 9.88337 27.4217 10.2117 27.4217 10.2117V14.3384H25.3217C23.25 14.3384 22.605 15.63 22.605 16.955V20.1017H27.2267L26.4884 24.9484H22.605V36.6667C30.5717 35.4084 36.6667 28.4717 36.6667 20.1017Z" fill="black"/>
</g>
<defs>
<clipPath id="clip0_1_79">
<rect width="40" height="40" fill="white"/>
</clipPath>
</defs>
</svg>
