<svg width="40" height="40" viewBox="0 0 40 40" fill="none" xmlns="http://www.w3.org/2000/svg">
<g clip-path="url(#clip0_1_82)">
<path d="M27.6734 14.1934C27.89 14.7767 28.0034 15.3917 28.0117 16.0117C28.0667 17.0484 28.0667 17.3634 28.0667 19.9884C28.0667 22.6117 28.06 22.9267 28.0117 23.9634C28.0033 24.5843 27.8888 25.1993 27.6734 25.7817C27.5096 26.2058 27.2589 26.591 26.9374 26.9124C26.616 27.2339 26.2308 27.4846 25.8067 27.6484C25.2234 27.865 24.6084 27.9784 23.9884 27.9884C22.9517 28.0417 22.6367 28.0417 20.0117 28.0417C17.3884 28.0417 17.0734 28.0367 16.0367 27.9884C15.4157 27.9794 14.8007 27.8644 14.2184 27.6484C13.7943 27.4846 13.4091 27.2339 13.0876 26.9124C12.7662 26.591 12.5155 26.2058 12.3517 25.7817C12.1359 25.1999 12.0209 24.5855 12.0117 23.965C11.9584 22.9267 11.9584 22.6117 11.9584 19.9884C11.9584 17.3634 11.9634 17.0484 12.0117 16.0117C12.0217 15.3917 12.135 14.7767 12.3517 14.195C12.5155 13.7709 12.7662 13.3858 13.0876 13.0643C13.4091 12.7428 13.7943 12.4922 14.2184 12.3284C14.8017 12.1117 15.415 11.9967 16.035 11.9884C17.0734 11.9334 17.3884 11.9334 20.0117 11.9334C22.6367 11.9334 22.9517 11.94 23.9884 11.9884C24.6084 11.9967 25.2234 12.1117 25.805 12.3267C26.6634 12.66 27.3434 13.3367 27.6734 14.1934ZM20 25.055C20.6639 25.055 21.3212 24.9243 21.9345 24.6703C22.5478 24.4162 23.1051 24.0439 23.5745 23.5745C24.0439 23.1051 24.4162 22.5478 24.6703 21.9345C24.9243 21.3212 25.055 20.6639 25.055 20C25.055 19.3362 24.9243 18.6789 24.6703 18.0656C24.4162 17.4523 24.0439 16.895 23.5745 16.4256C23.1051 15.9562 22.5478 15.5839 21.9345 15.3298C21.3212 15.0758 20.6639 14.945 20 14.945C18.6594 14.945 17.3736 15.4776 16.4256 16.4256C15.4776 17.3736 14.945 18.6594 14.945 20C14.945 21.3407 15.4776 22.6265 16.4256 23.5745C17.3736 24.5225 18.6594 25.055 20 25.055ZM25.255 15.9267C25.4155 15.9352 25.576 15.911 25.7268 15.8555C25.8776 15.7999 26.0155 15.7143 26.1321 15.6037C26.2487 15.4931 26.3415 15.36 26.405 15.2124C26.4684 15.0647 26.5012 14.9057 26.5012 14.745C26.5012 14.5844 26.4684 14.4254 26.405 14.2777C26.3415 14.1301 26.2487 13.997 26.1321 13.8864C26.0155 13.7758 25.8776 13.6902 25.7268 13.6346C25.576 13.5791 25.4155 13.5548 25.255 13.5634C24.9525 13.5794 24.6676 13.711 24.4592 13.9308C24.2507 14.1506 24.1345 14.4421 24.1345 14.745C24.1345 15.048 24.2507 15.3394 24.4592 15.5593C24.6676 15.7791 24.9525 15.9106 25.255 15.9267ZM20 23.2784C19.1306 23.2784 18.2967 22.933 17.6819 22.3182C17.0671 21.7034 16.7217 20.8695 16.7217 20C16.7217 19.1306 17.0671 18.2967 17.6819 17.6819C18.2967 17.0671 19.1306 16.7217 20 16.7217C20.8695 16.7217 21.7034 17.0671 22.3182 17.6819C22.933 18.2967 23.2784 19.1306 23.2784 20C23.2784 20.8695 22.933 21.7034 22.3182 22.3182C21.7034 22.933 20.8695 23.2784 20 23.2784ZM20 3.33337C10.795 3.33337 3.33337 10.795 3.33337 20C3.33337 29.205 10.795 36.6667 20 36.6667C29.205 36.6667 36.6667 29.205 36.6667 20C36.6667 17.8113 36.2356 15.6441 35.398 13.622C34.5605 11.5999 33.3328 9.76257 31.7852 8.21493C30.2375 6.66728 28.4002 5.43963 26.3781 4.60205C24.356 3.76447 22.1887 3.33337 20 3.33337ZM29.7834 24.055C29.7667 24.8717 29.6134 25.6784 29.3267 26.4417C29.0742 27.0959 28.6877 27.69 28.192 28.186C27.6963 28.6819 27.1024 29.0688 26.4484 29.3217C25.6836 29.6066 24.876 29.7599 24.06 29.775C23.0117 29.825 22.6784 29.8367 20.0067 29.8367C17.3334 29.8367 16.975 29.8367 15.9517 29.775C15.1357 29.7599 14.3282 29.6066 13.5634 29.3217C12.9094 29.0688 12.3154 28.6819 11.8198 28.186C11.3241 27.69 10.9376 27.0959 10.685 26.4417C10.3997 25.6775 10.2459 24.8706 10.23 24.055C10.1817 23.005 10.17 22.6717 10.17 20C10.17 17.3267 10.17 16.97 10.23 15.945C10.2467 15.1284 10.4 14.3217 10.685 13.5584C10.9376 12.9042 11.3241 12.3101 11.8198 11.8141C12.3154 11.3181 12.9094 10.9313 13.5634 10.6784C14.3282 10.3935 15.1357 10.2402 15.9517 10.225C17 10.175 17.3334 10.1634 20.0067 10.1634C22.6784 10.1634 23.0367 10.1634 24.06 10.225C24.8767 10.24 25.6834 10.3934 26.4484 10.6784C27.7717 11.19 28.815 12.235 29.3267 13.5584C29.6134 14.3217 29.7667 15.13 29.7817 15.945C29.8317 16.995 29.8417 17.3284 29.8417 20C29.8417 22.6734 29.83 23.0067 29.7817 24.055H29.7834Z" fill="black"/>
</g>
<defs>
<clipPath id="clip0_1_82">
<rect width="40" height="40" fill="white"/>
</clipPath>
</defs>
</svg>
