<svg width="40" height="40" viewBox="0 0 40 40" fill="none" xmlns="http://www.w3.org/2000/svg">
<g clip-path="url(#clip0_1_86)">
<path d="M36.6667 20C36.6667 10.7934 29.205 3.33337 20 3.33337C10.7967 3.33337 3.33337 10.7967 3.33337 20C3.33337 29.205 10.7967 36.6667 20 36.6667C29.205 36.6667 36.6667 29.205 36.6667 20ZM30.3417 14.14C29.7917 14.96 29.0934 15.6834 28.2917 16.2584L28.305 16.79C28.305 22.215 24.1767 28.465 16.6284 28.465C14.3986 28.4665 12.2156 27.826 10.34 26.62C11.4146 26.7502 12.5042 26.6672 13.5466 26.3757C14.5891 26.0843 15.5638 25.5902 16.415 24.9217C15.5588 24.9052 14.7291 24.6217 14.0418 24.1108C13.3546 23.5998 12.8441 22.8869 12.5817 22.0717C13.1967 22.19 13.8307 22.1661 14.435 22.0017C13.5069 21.8135 12.6723 21.3103 12.0725 20.5775C11.4727 19.8446 11.1445 18.9271 11.1434 17.98V17.9267C11.6984 18.235 12.3284 18.4184 13.0017 18.4417C12.1323 17.8623 11.5168 16.9729 11.2808 15.9552C11.0448 14.9374 11.2061 13.868 11.7317 12.965C12.762 14.2329 14.0475 15.2698 15.5048 16.0083C16.962 16.7468 18.5584 17.1705 20.19 17.2517C19.9824 16.3711 20.0717 15.4466 20.4439 14.622C20.8161 13.7974 21.4504 13.1189 22.2481 12.6921C23.0458 12.2653 23.9623 12.1141 24.8548 12.262C25.7474 12.4099 26.566 12.8487 27.1834 13.51C28.1021 13.3277 28.9834 12.9912 29.79 12.515C29.483 13.4653 28.8409 14.2715 27.9834 14.7834C28.7967 14.6869 29.591 14.4695 30.34 14.1384L30.3417 14.14Z" fill="black"/>
</g>
<defs>
<clipPath id="clip0_1_86">
<rect width="40" height="40" fill="white"/>
</clipPath>
</defs>
</svg>
