<svg width="1440" height="120" viewBox="0 0 1440 120" fill="none" xmlns="http://www.w3.org/2000/svg">
<g clip-path="url(#clip0_1_408)">
<rect width="1440" height="120" transform="matrix(1 0 0 -1 0 120)" fill="#121212"/>
<circle cx="40" cy="40" r="40" transform="matrix(1 0 0 -1 -56 159)" fill="#575757"/>
<circle cx="50" cy="50" r="50" transform="matrix(1 0 0 -1 5 171)" fill="#575757"/>
<circle cx="25" cy="25" r="25" transform="matrix(1 0 0 -1 80 149)" fill="#575757"/>
<circle cx="70" cy="70" r="70" transform="matrix(1 0 0 -1 112 191)" fill="#575757"/>
<circle cx="70" cy="70" r="70" transform="matrix(1 0 0 -1 478 177)" fill="#575757"/>
<circle cx="70" cy="70" r="70" transform="matrix(1 0 0 -1 564 159)" fill="#575757"/>
<circle cx="70" cy="70" r="70" transform="matrix(1 0 0 -1 659 159)" fill="#575757"/>
<circle cx="40" cy="40" r="40" transform="matrix(1 0 0 -1 228 159)" fill="#575757"/>
<circle cx="32" cy="32" r="32" transform="matrix(1 0 0 -1 379 159)" fill="#575757"/>
<circle cx="40" cy="40" r="40" transform="matrix(1 0 0 -1 428 151)" fill="#575757"/>
<circle cx="60" cy="60" r="60" transform="matrix(1 0 0 -1 277 151)" fill="#575757"/>
<circle cx="30" cy="30" r="30" transform="matrix(1 0 0 -1 720 129)" fill="#575757"/>
<circle cx="60" cy="60" r="60" transform="matrix(1 0 0 -1 750 151)" fill="#575757"/>
<circle cx="40" cy="40" r="40" transform="matrix(1 0 0 -1 840 139)" fill="#575757"/>
<circle cx="50" cy="50" r="50" transform="matrix(1 0 0 -1 901 151)" fill="#575757"/>
<circle cx="25" cy="25" r="25" transform="matrix(1 0 0 -1 976 129)" fill="#575757"/>
<circle cx="70" cy="70" r="70" transform="matrix(1 0 0 -1 1008 171)" fill="#575757"/>
<circle cx="40" cy="40" r="40" transform="matrix(1 0 0 -1 1124 139)" fill="#575757"/>
<circle cx="32" cy="32" r="32" transform="matrix(1 0 0 -1 1275 139)" fill="#575757"/>
<circle cx="40" cy="40" r="40" transform="matrix(1 0 0 -1 1324 131)" fill="#575757"/>
<circle cx="60" cy="60" r="60" transform="matrix(1 0 0 -1 1373 147)" fill="#575757"/>
<circle cx="60" cy="60" r="60" transform="matrix(1 0 0 -1 1173 131)" fill="#575757"/>
<circle cx="30" cy="30" r="30" transform="matrix(1 0 0 -1 0 168)" fill="white"/>
<circle cx="60" cy="60" r="60" transform="matrix(1 0 0 -1 30 190)" fill="white"/>
<circle cx="40" cy="40" r="40" transform="matrix(1 0 0 -1 120 178)" fill="white"/>
<circle cx="50" cy="50" r="50" transform="matrix(1 0 0 -1 181 190)" fill="white"/>
<circle cx="25" cy="25" r="25" transform="matrix(1 0 0 -1 256 168)" fill="white"/>
<circle cx="70" cy="70" r="70" transform="matrix(1 0 0 -1 288 210)" fill="white"/>
<circle cx="40" cy="40" r="40" transform="matrix(1 0 0 -1 404 178)" fill="white"/>
<circle cx="32" cy="32" r="32" transform="matrix(1 0 0 -1 555 178)" fill="white"/>
<circle cx="40" cy="40" r="40" transform="matrix(1 0 0 -1 604 170)" fill="white"/>
<circle cx="60" cy="60" r="60" transform="matrix(1 0 0 -1 453 170)" fill="white"/>
<circle cx="30" cy="30" r="30" transform="matrix(1 0 0 -1 609 161)" fill="white"/>
<circle cx="60" cy="60" r="60" transform="matrix(1 0 0 -1 639 173)" fill="white"/>
<circle cx="40" cy="40" r="40" transform="matrix(1 0 0 -1 729 171)" fill="white"/>
<circle cx="50" cy="50" r="50" transform="matrix(1 0 0 -1 790 183)" fill="white"/>
<circle cx="25" cy="25" r="25" transform="matrix(1 0 0 -1 865 161)" fill="white"/>
<circle cx="70" cy="70" r="70" transform="matrix(1 0 0 -1 897 203)" fill="white"/>
<circle cx="40" cy="40" r="40" transform="matrix(1 0 0 -1 1013 171)" fill="white"/>
<circle cx="32" cy="32" r="32" transform="matrix(1 0 0 -1 1164 171)" fill="white"/>
<circle cx="40" cy="40" r="40" transform="matrix(1 0 0 -1 1213 163)" fill="white"/>
<circle cx="60" cy="60" r="60" transform="matrix(1 0 0 -1 1062 163)" fill="white"/>
<circle cx="30" cy="30" r="30" transform="matrix(1 0 0 -1 840 178)" fill="white"/>
<circle cx="60" cy="60" r="60" transform="matrix(1 0 0 -1 870 200)" fill="white"/>
<circle cx="40" cy="40" r="40" transform="matrix(1 0 0 -1 960 188)" fill="white"/>
<circle cx="50" cy="50" r="50" transform="matrix(1 0 0 -1 1021 200)" fill="white"/>
<circle cx="70" cy="70" r="70" transform="matrix(1 0 0 -1 1128 220)" fill="white"/>
<circle cx="40" cy="40" r="40" transform="matrix(1 0 0 -1 1244 188)" fill="white"/>
<circle cx="60" cy="60" r="60" transform="matrix(1 0 0 -1 1293 200)" fill="white"/>
</g>
<defs>
<clipPath id="clip0_1_408">
<rect width="1440" height="120" fill="white" transform="matrix(1 0 0 -1 0 120)"/>
</clipPath>
</defs>
</svg>
