<svg width="90" height="78" viewBox="0 0 90 78" fill="none" xmlns="http://www.w3.org/2000/svg">
<path d="M22.7524 57.7831C26.6271 56.7449 28.8631 52.5259 27.7468 48.3598C26.6305 44.1936 22.5845 41.6579 18.7098 42.6961C14.8352 43.7343 12.5991 47.9533 13.7154 52.1195C14.8318 56.2856 18.8777 58.8213 22.7524 57.7831Z" fill="#245017"/>
<path d="M70.8859 37.5367C71.137 46.3455 56.2916 53.2783 48.3976 55.6517C38.5726 58.6083 21.3798 59.958 17.0921 51.9507C12.5733 43.511 22.8642 25.5665 37.7757 21.5655C52.7244 17.56 70.6124 28.0089 70.8808 37.5381L70.8859 37.5367Z" fill="#245017"/>
<path d="M45.9965 54.8035C47.9259 52.3657 42.1086 44.5476 33.0032 37.3411C23.8979 30.1346 14.9525 26.2688 13.0231 28.7066C11.0938 31.1443 16.9111 38.9625 26.0164 46.1689C35.1217 53.3754 44.0671 57.2412 45.9965 54.8035Z" fill="#245017"/>
<path d="M36.0352 52.1075C38.3701 49.1574 35.4295 42.9405 29.4672 38.2217C23.505 33.5028 16.7789 32.069 14.444 35.0191C12.1091 37.9692 15.0497 44.1861 21.0119 48.9049C26.9742 53.6238 33.7003 55.0576 36.0352 52.1075Z" fill="#245017"/>
<path d="M49.4091 55.3477C53.8555 54.1562 54.7377 43.0308 51.3796 30.4984C48.0216 17.9659 41.6948 8.7721 37.2484 9.9635C32.8021 11.1549 31.9198 22.2803 35.2779 34.8128C38.636 47.3453 44.9627 56.5391 49.4091 55.3477Z" fill="#245017"/>
<path d="M63.3475 37.3916C71.8972 27.6323 75.8907 17.1476 72.2673 13.9734C68.644 10.7991 58.7758 16.1373 50.2262 25.8966C41.6765 35.6559 37.683 46.1406 41.3064 49.3149C44.9297 52.4891 54.7979 47.1509 63.3475 37.3916Z" fill="#245017"/>
<path d="M39.2463 40.8295C38.5066 41.0002 38.1433 41.8171 38.1267 42.5136C38.1012 43.4432 38.7852 44.1717 39.6337 44.4277C40.9544 44.8263 42.4198 43.8789 42.7179 42.5522C42.8997 41.7345 42.6828 40.9248 42.1164 40.3076C41.6562 39.7992 40.9775 39.5417 40.3076 39.5015C39.6377 39.4613 38.9422 39.7355 38.4325 40.1907C37.7822 40.7769 37.5734 41.6787 37.72 42.5127C37.9007 43.5354 38.8235 44.2328 39.8219 44.2894C40.8202 44.3459 41.7403 43.5776 42.0451 42.6446C42.2446 42.0364 42.0209 41.2834 41.5645 40.8509L41.5422 40.8294C40.976 40.2946 40.0466 40.1262 39.3653 40.5559C38.9285 40.8322 38.6224 41.2273 38.4815 41.7264L38.6621 41.2936C38.6499 41.3298 38.6297 41.3572 38.6045 41.3859L38.8891 41.0131C38.8638 41.0418 38.8386 41.0705 38.8054 41.0904L39.1827 40.7971C39.151 40.822 39.1165 40.8368 39.0768 40.8529L39.5318 40.6651C39.496 40.6747 39.455 40.6857 39.4191 40.6953L39.907 40.6304C39.8698 40.6349 39.8312 40.6343 39.7912 40.6285L40.2595 40.6953L40.2051 40.6769L40.638 40.8575L40.586 40.8275L40.9589 41.1121C40.9185 41.0844 40.8833 41.0554 40.8555 41.0134L41.1475 41.3856C41.1211 41.3487 41.0934 41.3067 41.081 41.2606L41.2675 41.7105C41.2551 41.6643 41.2428 41.6182 41.2304 41.5721L41.2939 42.0549C41.2866 42.0074 41.2897 41.9572 41.2927 41.9069L41.231 42.3739C41.2426 42.2939 41.2647 42.233 41.2892 42.1605L41.1124 42.5869C41.1335 42.5428 41.1598 42.4973 41.1888 42.4621L40.9079 42.8284C40.9369 42.7932 40.9673 42.7631 40.9977 42.733L40.6293 43.0184C40.6839 42.9763 40.7311 42.9472 40.7936 42.914L40.3488 43.0991C40.4332 43.0655 40.5101 43.0449 40.5999 43.0318L40.1222 43.0939C40.2135 43.0859 40.2958 43.0858 40.3874 43.0997L39.9256 43.0367C39.9903 43.0524 40.0535 43.0629 40.1143 43.085L39.6931 42.9068C39.7734 42.9402 39.8449 42.9814 39.9191 43.033L39.5593 42.7559C39.5945 42.7849 39.6233 42.8101 39.6496 42.847L39.3655 42.4837C39.4076 42.5384 39.4367 42.5855 39.47 42.648L39.2876 42.2135C39.3106 42.2788 39.3271 42.3403 39.3398 42.4082L39.2805 41.9408C39.2863 41.9832 39.2819 42.0283 39.2775 42.0734L39.3382 41.6232C39.3338 41.6684 39.3243 41.7148 39.3134 41.7562C39.4525 41.4553 39.4821 41.3814 39.4075 41.5333C39.2761 41.7607 39.7529 41.1826 39.4535 41.4386L39.8079 41.1623C39.7533 41.2044 39.6959 41.2363 39.6385 41.2681L40.0627 41.0885C39.9989 41.1166 39.9425 41.1318 39.8731 41.1394L40.3303 41.0828C40.261 41.0904 40.1991 41.085 40.1307 41.0758L40.5693 41.1341C40.369 41.0834 40.7987 41.2319 40.8015 41.2421C40.7973 41.2268 40.7012 41.1756 40.6766 41.1657C40.5467 41.0907 40.3706 41.028 40.2321 40.9827C40.0755 40.9313 40.1565 40.9261 40.4411 41.086C40.1955 40.9486 40.6603 41.269 40.5338 41.1656C40.1578 40.8489 39.7308 40.7106 39.2501 40.823L39.2463 40.8295Z" fill="white"/>
<path d="M22.271 31.3059C22.373 29.1858 24.5113 28.0032 26.369 29.0324C27.0393 29.4021 27.6422 28.3726 26.9655 27.9992C24.3103 26.5356 21.2189 28.2812 21.0779 31.3015C21.0419 32.0691 22.235 32.0735 22.2724 31.311L22.271 31.3059Z" fill="white"/>
<path d="M34.9375 30.7956C35.9717 28.8542 38.5254 28.9554 39.4645 30.9228C39.7979 31.6134 40.8224 31.0093 40.4942 30.3173C39.1697 27.5469 35.3416 27.5071 33.9044 30.1991C33.5426 30.8782 34.5757 31.4747 34.9375 30.7956Z" fill="white"/>
<path d="M31.3134 54.1271L49.6734 68.9205" stroke="#FFB487" stroke-width="2.37076" stroke-miterlimit="10" stroke-linecap="round"/>
<path d="M28.1158 48.2609C30.3262 47.6686 31.638 45.3966 31.0457 43.1861C30.4534 40.9757 28.1814 39.6639 25.9709 40.2562C23.7605 40.8485 22.4487 43.1205 23.041 45.331C23.6333 47.5414 25.9053 48.8532 28.1158 48.2609Z" fill="white"/>
<path d="M38.6176 47.4407C38.9156 48.5528 38.2553 49.6964 37.1433 49.9944C36.0312 50.2923 34.8927 49.6307 34.5948 48.5186C34.5028 48.1753 34.4982 47.8305 34.5713 47.5088C34.7393 46.7827 35.2902 46.1737 36.064 45.9664C36.9659 45.7247 37.8888 46.1146 38.3647 46.8658C38.477 47.039 38.5627 47.2357 38.6176 47.4407Z" fill="white" stroke="white" stroke-width="0.948303" stroke-miterlimit="10" stroke-linecap="round"/>
<path d="M38.3633 46.8607C38.0522 47.3396 37.5042 47.7336 36.8226 47.9162C35.9514 48.1496 35.0886 47.9634 34.5699 47.5037C34.7379 46.7776 35.2887 46.1686 36.0626 45.9613C36.9645 45.7196 37.8874 46.1094 38.3633 46.8607Z" fill="black"/>
<path opacity="0.45" d="M23.462 58.2178C30.1075 56.4372 34.0555 49.6225 32.2802 42.9968C30.5048 36.3711 23.6784 32.4434 17.0329 34.2241C10.3874 36.0047 6.43936 42.8194 8.2147 49.4451C9.99005 56.0708 16.8165 59.9985 23.462 58.2178Z" fill="#B5FFDD"/>
<path d="M24.04 57.9763C30.6855 56.1957 34.6292 49.3649 32.8486 42.7194C31.0679 36.0739 24.2372 32.1302 17.5917 33.9108C10.9462 35.6915 7.00244 42.5223 8.78309 49.1678C10.5638 55.8133 17.3945 59.757 24.04 57.9763Z" stroke="#FFB487" stroke-width="1.42245" stroke-miterlimit="10"/>
<path d="M63.7648 46.4644C63.3434 54.4647 58.805 62.5355 51.11 65.652C48.4252 66.7833 45.5332 67.3055 42.6696 67.2984C39.9479 67.3081 37.7283 65.1126 37.7134 62.3923C37.7037 59.6705 39.8992 57.451 42.6195 57.4361C45.2347 57.746 47.9293 57.6556 50.264 56.3654C54.2116 54.4124 56.6197 49.9113 57.4595 45.6657C58.3109 41.8124 63.906 42.5432 63.7596 46.4657L63.7648 46.4644Z" fill="#245017"/>
</svg>
