<svg width="90" height="64" viewBox="0 0 90 64" fill="none" xmlns="http://www.w3.org/2000/svg">
<g filter="url(#filter0_d_8_51)">
<path d="M62.5803 43.8115C59.7825 52.4929 51.5171 57.8097 42.4608 55.3044C40.1841 54.7193 38.8126 52.3969 39.4024 50.1248C39.9875 47.8482 42.3099 46.4767 44.582 47.0664C46.4106 47.7933 48.3353 48.3693 50.2873 47.903C53.4829 47.327 56.0887 44.5612 57.5287 41.7177C59.1242 38.7553 63.5541 40.6113 62.5803 43.816V43.8115Z" fill="#245017"/>
<path d="M33.6562 36.7166C31.3202 37.6812 27.2194 39.6836 26.648 42.2574C26.6388 42.7054 26.7897 42.806 27.0594 43.1443C28.6321 44.9546 28.4401 47.6976 26.6297 49.2702C24.4673 51.2223 20.8375 50.3537 19.7677 47.6564L19.402 46.765C17.9528 43.4049 18.7208 39.5099 21.1712 36.8446C24.1153 33.6994 28.184 32.2547 32.2345 31.4136C35.5946 30.8513 36.8244 35.5372 33.6517 36.7121L33.6562 36.7166Z" fill="#245017"/>
<path d="M76.8846 39.1305C74.0228 47.021 59.1285 47.8988 51.6586 47.2039C49.2265 46.9799 46.4058 46.477 43.5531 45.6998C35.5117 43.5238 27.2143 39.1945 26.6108 32.8354C26.1765 28.2318 29.7972 22.8099 35.2968 18.8143C40.6319 14.9376 47.7316 12.4004 54.5935 13.2598C68.5643 15.0062 79.975 30.5999 76.8846 39.1305Z" fill="#245017"/>
<path d="M50.251 43.0985C47.9606 44.3923 41.7706 37.7909 36.431 28.346C35.6036 26.8876 34.8493 25.4476 34.1681 24.0487C32.4355 20.5011 31.192 17.2187 30.552 14.6175C29.8068 11.6048 29.8662 9.49272 30.904 8.90299C33.1989 7.60923 39.3843 14.2106 44.7285 23.6555C50.0681 33.0959 52.5413 41.8002 50.251 43.0985Z" fill="#245017"/>
<path d="M59.0341 23.2029C60.5012 11.4909 58.3213 1.57442 54.1651 1.05379C50.0089 0.533161 45.4503 9.60557 43.9832 21.3176C42.5161 33.0296 44.696 42.9461 48.8522 43.4667C53.0084 43.9874 57.567 34.915 59.0341 23.2029Z" fill="#245017"/>
<path d="M72.8494 32.2202C82.0147 24.7824 87.305 16.1163 84.6655 12.8638C82.0261 9.61136 72.4565 13.0043 63.2912 20.4421C54.1259 27.8799 48.8357 36.5461 51.4751 39.7985C54.1145 43.051 63.6841 39.6581 72.8494 32.2202Z" fill="#245017"/>
<path opacity="0.59" d="M46.2918 45.1695C40.8334 51.7891 29.8113 50.6828 24.7688 50.1433C21.6555 49.8096 10.1122 48.5799 5.97038 40.8539C5.22979 39.4687 4.06861 37.5943 4.65378 35.4228C5.38066 32.7347 8.39333 30.7735 20.5995 27.0065C32.1976 23.427 38.0493 21.6669 40.8882 22.8464C48.3216 25.9459 52.1572 38.0469 46.2918 45.1649V45.1695Z" fill="url(#paint0_linear_8_51)"/>
<path d="M38.2365 29.1369C38.0491 29.8044 38.4422 30.5312 39.0228 30.8695C39.5531 31.1804 40.2663 31.1621 40.7737 30.8101C41.2812 30.4581 41.6835 29.8592 41.6286 29.21C41.5646 28.4466 41.0983 27.7974 40.344 27.5871C39.7268 27.4134 38.9999 27.5688 38.5382 28.0306C38.0765 28.4923 37.8936 29.1826 38.0673 29.8318C38.2411 30.481 38.7531 30.961 39.3794 31.1164C40.216 31.3267 41.0343 30.8147 41.304 30.0238C41.4366 29.6352 41.2857 29.1689 41.0023 28.89C40.6823 28.57 40.2937 28.5243 39.8685 28.5883C39.8228 28.5975 39.7771 28.6066 39.7314 28.6203L40.056 28.5746C40.0103 28.5792 39.9645 28.5837 39.9188 28.5746L40.2571 28.6203C40.1657 28.6066 40.0697 28.5929 39.9828 28.5609L40.2937 28.6935C40.2663 28.6797 40.2388 28.666 40.2114 28.6477L40.4766 28.8535C40.44 28.8215 40.408 28.794 40.376 28.7575L40.5817 29.0226C40.5543 28.9815 40.5314 28.9449 40.5086 28.9038L40.6411 29.2192C40.6183 29.1598 40.6 29.1003 40.5909 29.0409L40.6366 29.3929C40.6366 29.3426 40.6366 29.3015 40.6366 29.2558L40.5909 29.6078C40.5954 29.5758 40.6046 29.5483 40.6137 29.5163L40.4811 29.8318C40.4994 29.7861 40.5223 29.7495 40.5497 29.7129L40.344 29.9826C40.3623 29.9598 40.3851 29.9369 40.4126 29.9186L40.1428 30.1244C40.184 30.0969 40.2206 30.0741 40.2617 30.0558L39.9417 30.1884C39.9874 30.1701 40.0285 30.1609 40.0788 30.1518L39.7223 30.1975C39.7725 30.1975 39.8137 30.1929 39.864 30.1975L39.5074 30.1518C39.5531 30.1609 39.5988 30.1701 39.6445 30.1838L39.3245 30.0467C39.3702 30.0649 39.4068 30.0878 39.4434 30.1152L39.1737 29.9049C39.1965 29.9232 39.2194 29.9461 39.2377 29.9735L39.0274 29.6992C39.0274 29.6992 39.0594 29.7449 39.0731 29.7724L38.9359 29.4523C38.9542 29.4935 38.9634 29.5301 38.9725 29.5712L38.9222 29.2146C38.9268 29.2832 38.9268 29.3563 38.9222 29.4249L38.9679 29.0683C38.9588 29.114 38.9497 29.1506 38.9359 29.1918L39.0685 28.8763C39.0457 28.9312 39.0182 28.9769 38.9817 29.0272L39.1874 28.762C39.1599 28.794 39.1325 28.8215 39.0959 28.8489L39.3565 28.6477C39.32 28.6706 39.2879 28.6889 39.2468 28.7072L39.5531 28.5792C39.5257 28.5883 39.4983 28.5975 39.4708 28.5975L39.8091 28.5517C39.7817 28.5517 39.7543 28.5563 39.7223 28.5517L40.056 28.5975C40.0148 28.5929 39.9783 28.5837 39.9371 28.57L40.2343 28.6935C40.1977 28.6752 40.1657 28.6569 40.1291 28.634L40.376 28.826C40.344 28.7986 40.3166 28.7712 40.2891 28.7392L40.4811 28.986C40.3897 28.8626 40.3166 28.7117 40.1977 28.6112C39.8594 28.3414 39.4891 28.186 39.0502 28.3094C38.6525 28.4192 38.3371 28.7346 38.2273 29.1323L38.2365 29.1369Z" fill="white"/>
<path d="M47.9511 29.3155C47.3248 29.8229 47.1511 30.7738 47.5534 31.4641C47.9283 32.1087 48.6323 32.4836 49.3729 32.479C50.1135 32.4744 50.9089 32.0356 51.2838 31.3773C51.6815 30.6778 51.6678 29.8732 51.2655 29.1783C50.4335 27.7291 48.2026 27.6971 47.3797 29.1646C46.8676 30.0743 47.0916 31.2995 48.0151 31.8573C48.7466 32.3007 49.8712 32.2184 50.4472 31.5373C50.7946 31.1258 51.0598 30.5452 50.8541 29.9966L50.8404 29.9646C50.7032 29.5943 50.4929 29.2332 50.1272 29.0366C49.7615 28.84 49.35 28.776 48.934 28.8812C48.6871 28.9406 48.3626 29.1052 48.2025 29.2972C48.0608 29.4618 48.582 29.0732 48.3671 29.1692L48.7466 29.0092C48.7146 29.0229 48.678 29.032 48.6414 29.032L49.062 28.9772C49.0254 28.9772 48.9889 28.9772 48.9569 28.9772L49.3774 29.032C49.3409 29.0275 49.3089 29.0183 49.2769 29.0046L49.6517 29.1646C49.8163 29.2743 49.9535 29.4069 50.0632 29.5715L50.2232 29.9463C50.2049 29.9052 50.1958 29.8641 50.1912 29.8229L50.246 30.2389C50.2415 30.1978 50.246 30.1521 50.246 30.1109L50.1912 30.5269C50.2278 30.3761 50.2003 30.4355 50.0998 30.7144C49.9123 30.9292 49.8758 30.9841 49.9809 30.8698C49.8529 31.0024 49.6975 31.0938 49.5146 31.1395C49.5557 31.1258 49.5923 31.1167 49.6335 31.1121L49.222 31.167C49.286 31.1624 49.3409 31.167 49.4049 31.167L48.9934 31.1121C49.19 31.1487 49.1077 31.2081 48.8609 31.0298C48.9934 31.1304 49.0254 31.1852 48.7557 30.9247C48.9249 31.0892 48.5728 30.5772 48.6734 30.8012L48.5683 30.5452C48.582 30.5818 48.5911 30.6229 48.5957 30.6641L48.5409 30.2618C48.5454 30.3029 48.5454 30.3441 48.5409 30.3852L48.5957 29.9829C48.5729 30.1521 48.4906 30.1749 48.678 29.8549C48.5591 30.0561 48.9386 29.5852 48.7603 29.7406L48.966 29.5852C48.9294 29.608 48.8974 29.6309 48.8563 29.6446C48.8517 29.5943 49.2814 29.512 48.9751 29.5623L49.3683 29.5075C49.3043 29.512 49.2495 29.512 49.1854 29.5075L49.5786 29.5623C49.4369 29.5303 49.4963 29.5623 49.7569 29.6538C49.6289 29.576 49.6792 29.6172 49.9123 29.7818C50.0723 30.0103 50.1181 30.0652 50.0403 29.9418C49.9672 29.8275 49.8849 29.7223 49.7935 29.6263C49.7066 29.5303 49.6015 29.448 49.4826 29.384C49.702 29.5669 49.7615 29.608 49.6655 29.5166C49.8163 29.7223 49.8575 29.7726 49.7843 29.6675C49.7295 29.5669 49.7523 29.6172 49.8483 29.8229C49.7066 29.4389 49.4597 29.1372 49.0529 29.0275C48.646 28.9177 48.2711 29.0549 47.942 29.32L47.9511 29.3155Z" fill="white"/>
<path d="M38.1225 25.2418C38.7762 23.8337 40.4403 23.6372 41.4094 24.8395C41.8255 25.3561 42.5478 24.6246 42.1363 24.1126C40.774 22.4257 38.1453 22.7548 37.231 24.7206C36.9567 25.3195 37.839 25.8407 38.1179 25.2418H38.1225Z" fill="white"/>
<path d="M49.282 25.251C50.9872 23.8338 53.4467 24.931 53.5793 27.1253C53.6204 27.7836 54.649 27.7882 54.6079 27.1253C54.4205 24.0029 50.946 22.5355 48.5551 24.5241C48.0477 24.9493 48.7791 25.6716 49.282 25.251Z" fill="white"/>
<path d="M44.6458 33.521C44.6458 34.5679 43.7955 35.4182 42.7486 35.4182C41.7017 35.4182 40.856 34.5679 40.856 33.521C40.856 33.1964 40.9337 32.8947 41.0754 32.6295C41.3954 32.0306 42.0217 31.6238 42.7486 31.6238C43.5989 31.6238 44.3167 32.1815 44.559 32.9541C44.6184 33.1324 44.6458 33.3244 44.6458 33.521Z" fill="white" stroke="white" stroke-width="0.914319" stroke-miterlimit="10" stroke-linecap="round"/>
<path d="M25.8892 51.4446L35.4164 48.6804L22.9039 43.5648" fill="#767B77"/>
<path d="M25.8892 51.4446L35.4164 48.6804L22.9039 43.5648" stroke="#767B77" stroke-width="1.82864" stroke-linecap="round" stroke-linejoin="round"/>
<path d="M6.47788 32.0766L24.2934 35.5144C25.1711 35.6836 25.8523 36.4333 25.9894 37.3842L27.7861 49.7732C28.0101 51.3139 26.7575 52.6351 25.3357 52.3608L7.86307 48.9869C7.00818 48.8224 6.33616 48.1046 6.17615 47.1812L4.03665 34.7281C3.76693 33.1692 5.02868 31.8023 6.47788 32.0812V32.0766Z" fill="#3E3D4D"/>
<path d="M14.2177 43.5333C14.9424 43.5333 15.5298 42.9459 15.5298 42.2212C15.5298 41.4966 14.9424 40.9092 14.2177 40.9092C13.4931 40.9092 12.9057 41.4966 12.9057 42.2212C12.9057 42.9459 13.4931 43.5333 14.2177 43.5333Z" fill="black"/>
<path d="M14.7295 39.9257C15.0199 39.9257 15.2553 39.6904 15.2553 39.4C15.2553 39.1096 15.0199 38.8743 14.7295 38.8743C14.4392 38.8743 14.2038 39.1096 14.2038 39.4C14.2038 39.6904 14.4392 39.9257 14.7295 39.9257Z" fill="black"/>
<path d="M16.2334 40.9454C16.4152 40.9454 16.5625 40.7981 16.5625 40.6163C16.5625 40.4345 16.4152 40.2871 16.2334 40.2871C16.0516 40.2871 15.9042 40.4345 15.9042 40.6163C15.9042 40.7981 16.0516 40.9454 16.2334 40.9454Z" fill="black"/>
<path d="M39.0324 29.8591C39.3101 29.8591 39.5353 29.634 39.5353 29.3563C39.5353 29.0785 39.3101 28.8534 39.0324 28.8534C38.7547 28.8534 38.5295 29.0785 38.5295 29.3563C38.5295 29.634 38.7547 29.8591 39.0324 29.8591Z" fill="black"/>
<path d="M48.1662 30.8059C48.4439 30.8059 48.6691 30.5808 48.6691 30.303C48.6691 30.0253 48.4439 29.8002 48.1662 29.8002C47.8884 29.8002 47.6633 30.0253 47.6633 30.303C47.6633 30.5808 47.8884 30.8059 48.1662 30.8059Z" fill="black"/>
<path d="M44.5593 32.9541C44.1753 33.3016 43.5992 33.521 42.9592 33.521C42.1363 33.521 41.4232 33.1553 41.0757 32.6295C41.3957 32.0306 42.022 31.6238 42.7489 31.6238C43.5992 31.6238 44.317 32.1815 44.5593 32.9541Z" fill="black"/>
</g>
<defs>
<filter id="filter0_d_8_51" x="4.57764e-05" y="1.03247" width="89.3444" height="62.8934" filterUnits="userSpaceOnUse" color-interpolation-filters="sRGB">
<feFlood flood-opacity="0" result="BackgroundImageFix"/>
<feColorMatrix in="SourceAlpha" type="matrix" values="0 0 0 0 0 0 0 0 0 0 0 0 0 0 0 0 0 0 127 0" result="hardAlpha"/>
<feOffset dy="4"/>
<feGaussianBlur stdDeviation="2"/>
<feComposite in2="hardAlpha" operator="out"/>
<feColorMatrix type="matrix" values="0 0 0 0 0 0 0 0 0 0 0 0 0 0 0 0 0 0 0.25 0"/>
<feBlend mode="normal" in2="BackgroundImageFix" result="effect1_dropShadow_8_51"/>
<feBlend mode="normal" in="SourceGraphic" in2="effect1_dropShadow_8_51" result="shape"/>
</filter>
<linearGradient id="paint0_linear_8_51" x1="8.06907" y1="27.5803" x2="44.4312" y2="47.4124" gradientUnits="userSpaceOnUse">
<stop stop-color="#B5FF9F"/>
<stop offset="1" stop-color="white"/>
</linearGradient>
</defs>
</svg>
