<svg width="101" height="68" viewBox="0 0 101 68" fill="none" xmlns="http://www.w3.org/2000/svg">
<path opacity="0.47" d="M78.8612 35.7792C77.5322 50.3389 65.2194 64.646 48.9964 64.5087C33.3994 64.377 21.6962 50.9538 19.829 37.3768C17.44 20.0007 30.9775 1.03251 48.9964 0.889772C66.5265 0.74703 80.4429 18.48 78.8612 35.7792Z" fill="url(#paint0_linear_1_524)"/>
<path opacity="0.47" d="M57.7918 38.3809C59.2937 40.624 67.7623 53.2471 63.2457 59.5586C55.3965 70.5213 9.40815 60.9551 4.99569 39.9533C3.64728 33.5263 6.17966 25.9723 11.1512 21.9863C22.4756 12.9094 46.8182 22.0248 57.7863 38.3809H57.7918Z" fill="url(#paint1_linear_1_524)"/>
<path opacity="0.47" d="M56.4174 61.0861C53.7478 60.7352 38.7065 58.7394 36.9853 51.1839C33.9923 38.0576 71.5958 9.90796 90.2111 20.4737C95.9064 23.7086 99.8696 30.5953 99.5571 36.9555C98.8391 51.4416 75.9097 63.6631 56.4228 61.0806L56.4174 61.0861Z" fill="url(#paint2_linear_1_524)"/>
<path d="M23.8103 50.8386C18.9292 52.9934 13.4049 52.7248 12.355 46.4468C12.2176 45.9205 12.0912 45.7395 12.0307 45.7121C11.7119 45.5367 11.4206 45.4928 10.8489 45.4928C8.88107 45.5531 6.48447 46.222 4.36821 45.3886C-1.66725 43.0255 0.388553 34.823 3.07098 30.678C5.95679 26.4726 12.1571 30.3764 9.59015 34.7847C8.45232 36.1938 7.73224 37.9867 7.51237 39.6371C7.4519 39.5109 7.19356 39.2149 7.01766 39.1381C6.9517 39.0942 6.85826 39.0888 6.84726 39.0723C6.81978 39.0613 6.7593 39.0723 6.80328 39.0778C8.10052 39.341 9.6671 38.9791 11.2392 39.182C13.3225 39.3245 15.7081 40.3553 16.9613 42.3127C17.9233 43.6834 18.0827 45.5202 18.2806 46.5894C18.2806 46.6332 18.2806 46.5784 18.2531 46.5949C18.2476 46.5675 18.2036 46.5565 18.1871 46.54C18.1376 46.5071 18.1266 46.5291 18.1761 46.5675C18.2806 46.6497 18.5829 46.7374 18.9896 46.7539C19.8251 46.7922 20.985 46.5455 22.0953 46.1782C25.146 45.279 26.7181 49.5611 23.8103 50.8441V50.8386Z" fill="#245017"/>
<path d="M78.4753 44.174C79.8932 44.5353 81.3276 44.8857 82.5093 44.4806C82.5917 44.4313 82.6247 44.393 82.5862 44.3985C82.5422 44.4094 82.4543 44.4915 82.4158 44.5244C82.4708 43.736 82.7401 41.8745 83.6469 40.6098C84.3009 39.6297 85.2956 38.8632 86.3509 38.3595C88.4228 37.2919 91.6214 37.5602 93.3031 37.5109C93.7538 37.4945 94.0506 37.3795 93.8527 37.4069C93.5559 37.4616 93.2537 37.8066 93.1547 38.0475C93.0613 38.2665 93.0998 38.135 93.0119 37.823C92.7371 36.7225 92.1435 35.3428 91.2367 34.3847C88.0326 30.4262 93.5724 25.6356 97.0568 29.3531C99.7992 32.9064 102.223 39.898 97.5734 43.1283C94.6771 45.0555 91.6599 43.5936 88.824 43.9769C88.6426 44.0426 88.5437 44.0864 88.5327 44.0645C88.5052 44.0481 88.3953 44.1302 88.2634 44.6941C88.225 44.8584 88.1205 45.2745 88.0821 45.4332C87.7743 46.7582 87.0214 48.1324 85.8452 48.8935C83.1193 50.7221 79.547 49.8516 76.9035 48.8661C73.9357 47.678 75.3976 43.3308 78.4808 44.1576L78.4753 44.174Z" fill="#245017"/>
<path d="M80.3442 51.7395C78.1168 61.0971 60.506 64.2126 51.5086 64.4869C40.3112 64.827 21.8007 61.3988 19.5459 51.7395C17.1648 41.5591 33.0913 25.5536 49.945 25.5481C66.8371 25.5481 82.7526 41.6195 80.3442 51.7395Z" fill="#245017"/>
<path d="M48.3147 61.7731C52.35 58.7719 48.7652 47.1209 40.308 35.7498C31.8507 24.3788 21.7236 17.5936 17.6884 20.5948C13.6532 23.596 17.238 35.247 25.6952 46.6181C34.1524 57.9892 44.2795 64.7743 48.3147 61.7731Z" fill="#245017"/>
<path d="M49.9477 61.4273C54.9526 61.4273 59.01 49.9178 59.01 35.7201C59.01 21.5223 54.9526 10.0128 49.9477 10.0128C44.9427 10.0128 40.8854 21.5223 40.8854 35.7201C40.8854 49.9178 44.9427 61.4273 49.9477 61.4273Z" fill="#245017"/>
<path d="M74.2496 46.6331C82.7068 35.262 86.2915 23.611 82.2563 20.6098C78.2211 17.6086 68.094 24.3938 59.6368 35.7649C51.1795 47.1359 47.5948 58.7869 51.63 61.7881C55.6652 64.7893 65.7923 58.0042 74.2496 46.6331Z" fill="#245017"/>
<path d="M45.2008 50.3307C45.5355 50.6777 47.2312 52.3453 49.9477 52.4237C52.5694 52.502 54.3153 51.0414 54.6946 50.7112" stroke="white" stroke-miterlimit="10" stroke-linecap="round"/>
<path d="M39.1546 38.9423C39.827 36.9048 42.2961 36.3127 43.8889 37.7955C44.462 38.3289 45.3439 37.4862 44.7652 36.9474C42.4945 34.8299 38.9176 35.7207 37.9586 38.6223C37.7161 39.3583 38.9121 39.673 39.1546 38.9423Z" fill="white"/>
<path d="M41.4756 46.449C42.1362 44.3412 44.562 43.7287 46.1268 45.2627C46.69 45.8144 47.5563 44.9426 46.9878 44.3853C44.7569 42.1948 41.2428 43.1163 40.3006 46.1179C40.0624 46.8794 41.2374 47.2049 41.4756 46.449Z" fill="white"/>
<path d="M53.3107 44.9224C54.8381 43.3203 57.4289 43.7111 58.2322 45.8379C58.5151 46.5859 59.7483 46.2622 59.4598 45.503C58.3397 42.5444 54.6457 41.6903 52.4056 44.0348C51.8455 44.621 52.745 45.5141 53.305 44.9224H53.3107Z" fill="white"/>
<path d="M56.4762 37.4744C58.1299 35.6915 60.824 36.5305 61.2621 38.9096C61.4099 39.6934 62.5927 39.3622 62.4503 38.5784C61.8425 35.2885 57.8561 34.168 55.6055 36.5967C55.0634 37.1818 55.9341 38.0595 56.4762 37.4744Z" fill="white"/>
<defs>
<linearGradient id="paint0_linear_1_524" x1="49.2655" y1="0.884282" x2="49.2655" y2="64.5088" gradientUnits="userSpaceOnUse">
<stop stop-color="white"/>
<stop offset="1" stop-color="#FFA23F"/>
</linearGradient>
<linearGradient id="paint1_linear_1_524" x1="9.03001" y1="24.0302" x2="61.0182" y2="62.5801" gradientUnits="userSpaceOnUse">
<stop stop-color="white"/>
<stop offset="1" stop-color="#FFA23F"/>
</linearGradient>
<linearGradient id="paint2_linear_1_524" x1="99.4445" y1="34.0155" x2="36.1807" y2="47.3323" gradientUnits="userSpaceOnUse">
<stop stop-color="white"/>
<stop offset="1" stop-color="#FFA23F"/>
</linearGradient>
</defs>
</svg>
